<mxfile host="app.diagrams.net" modified="2022-09-06T23:37:42.576Z" agent="5.0 (Windows NT 10.0; Win64; x64) AppleWebKit/537.36 (KHTML, like Gecko) Chrome/105.0.0.0 Safari/537.36" etag="RLneqExE0tLQL3cx2uKM" version="20.2.7" type="github">
  <diagram id="XNd9bsfVxTQO85Du9Fa3" name="Página-1">
    <mxGraphModel dx="868" dy="446" grid="1" gridSize="10" guides="1" tooltips="1" connect="1" arrows="1" fold="1" page="1" pageScale="1" pageWidth="827" pageHeight="1169" math="0" shadow="0">
      <root>
        <mxCell id="0" />
        <mxCell id="1" parent="0" />
        <mxCell id="8Ps0CLrvJAw6-ZFK24jo-12" style="edgeStyle=orthogonalEdgeStyle;rounded=0;orthogonalLoop=1;jettySize=auto;html=1;entryX=0;entryY=0.5;entryDx=0;entryDy=0;startArrow=none;" edge="1" parent="1" source="8Ps0CLrvJAw6-ZFK24jo-18" target="8Ps0CLrvJAw6-ZFK24jo-9">
          <mxGeometry relative="1" as="geometry" />
        </mxCell>
        <mxCell id="8Ps0CLrvJAw6-ZFK24jo-15" style="edgeStyle=orthogonalEdgeStyle;rounded=0;orthogonalLoop=1;jettySize=auto;html=1;exitX=1;exitY=0.5;exitDx=0;exitDy=0;entryX=0;entryY=0.25;entryDx=0;entryDy=0;" edge="1" parent="1" source="8Ps0CLrvJAw6-ZFK24jo-3" target="8Ps0CLrvJAw6-ZFK24jo-8">
          <mxGeometry relative="1" as="geometry">
            <Array as="points">
              <mxPoint x="435" y="391" />
              <mxPoint x="435" y="400" />
              <mxPoint x="520" y="400" />
              <mxPoint x="520" y="374" />
            </Array>
          </mxGeometry>
        </mxCell>
        <mxCell id="8Ps0CLrvJAw6-ZFK24jo-29" value="" style="edgeStyle=orthogonalEdgeStyle;rounded=0;orthogonalLoop=1;jettySize=auto;html=1;entryX=0;entryY=0.5;entryDx=0;entryDy=0;" edge="1" parent="1" source="8Ps0CLrvJAw6-ZFK24jo-3" target="8Ps0CLrvJAw6-ZFK24jo-18">
          <mxGeometry relative="1" as="geometry">
            <mxPoint x="305" y="530" as="targetPoint" />
          </mxGeometry>
        </mxCell>
        <mxCell id="8Ps0CLrvJAw6-ZFK24jo-3" value="cliente&lt;br&gt;nome&amp;nbsp;&lt;br&gt;cpf&lt;br&gt;endereço&lt;br&gt;telefone" style="rounded=1;whiteSpace=wrap;html=1;" vertex="1" parent="1">
          <mxGeometry x="260" y="352.5" width="90" height="77.5" as="geometry" />
        </mxCell>
        <mxCell id="8Ps0CLrvJAw6-ZFK24jo-13" style="edgeStyle=orthogonalEdgeStyle;rounded=0;orthogonalLoop=1;jettySize=auto;html=1;exitX=0.5;exitY=1;exitDx=0;exitDy=0;entryX=1.011;entryY=0.667;entryDx=0;entryDy=0;entryPerimeter=0;startArrow=none;" edge="1" parent="1" source="8Ps0CLrvJAw6-ZFK24jo-16" target="8Ps0CLrvJAw6-ZFK24jo-9">
          <mxGeometry relative="1" as="geometry" />
        </mxCell>
        <mxCell id="8Ps0CLrvJAw6-ZFK24jo-25" style="edgeStyle=orthogonalEdgeStyle;rounded=0;orthogonalLoop=1;jettySize=auto;html=1;exitX=0.5;exitY=1;exitDx=0;exitDy=0;entryX=1;entryY=0.5;entryDx=0;entryDy=0;" edge="1" parent="1" source="8Ps0CLrvJAw6-ZFK24jo-8" target="8Ps0CLrvJAw6-ZFK24jo-16">
          <mxGeometry relative="1" as="geometry" />
        </mxCell>
        <mxCell id="8Ps0CLrvJAw6-ZFK24jo-8" value="fornecedor&lt;br&gt;cnpj&lt;br&gt;razãosocial&lt;br&gt;endereço&lt;br&gt;telefone&lt;br&gt;email" style="rounded=1;whiteSpace=wrap;html=1;" vertex="1" parent="1">
          <mxGeometry x="530" y="352.5" width="90" height="87.5" as="geometry" />
        </mxCell>
        <mxCell id="8Ps0CLrvJAw6-ZFK24jo-9" value="cod.rastreio&lt;br&gt;transportadora&lt;br&gt;prazo entrega&lt;br&gt;produto" style="rounded=0;whiteSpace=wrap;html=1;" vertex="1" parent="1">
          <mxGeometry x="369" y="670" width="90" height="90" as="geometry" />
        </mxCell>
        <mxCell id="8Ps0CLrvJAw6-ZFK24jo-10" value="" style="edgeStyle=orthogonalEdgeStyle;rounded=0;orthogonalLoop=1;jettySize=auto;html=1;" edge="1" parent="1" source="8Ps0CLrvJAw6-ZFK24jo-11" target="8Ps0CLrvJAw6-ZFK24jo-9">
          <mxGeometry relative="1" as="geometry" />
        </mxCell>
        <mxCell id="8Ps0CLrvJAw6-ZFK24jo-14" style="edgeStyle=orthogonalEdgeStyle;rounded=0;orthogonalLoop=1;jettySize=auto;html=1;entryX=0.5;entryY=0;entryDx=0;entryDy=0;" edge="1" parent="1" source="8Ps0CLrvJAw6-ZFK24jo-11" target="8Ps0CLrvJAw6-ZFK24jo-9">
          <mxGeometry relative="1" as="geometry" />
        </mxCell>
        <mxCell id="8Ps0CLrvJAw6-ZFK24jo-11" value="frete" style="rounded=1;whiteSpace=wrap;html=1;" vertex="1" parent="1">
          <mxGeometry x="369" y="600" width="90" height="20" as="geometry" />
        </mxCell>
        <mxCell id="8Ps0CLrvJAw6-ZFK24jo-16" value="entrega" style="rhombus;whiteSpace=wrap;html=1;" vertex="1" parent="1">
          <mxGeometry x="470" y="600" width="65" height="50" as="geometry" />
        </mxCell>
        <mxCell id="8Ps0CLrvJAw6-ZFK24jo-18" value="receber" style="rhombus;whiteSpace=wrap;html=1;" vertex="1" parent="1">
          <mxGeometry x="310" y="565" width="70" height="40" as="geometry" />
        </mxCell>
        <mxCell id="8Ps0CLrvJAw6-ZFK24jo-20" value="compra" style="rhombus;whiteSpace=wrap;html=1;" vertex="1" parent="1">
          <mxGeometry x="390" y="361.25" width="80" height="60" as="geometry" />
        </mxCell>
        <mxCell id="8Ps0CLrvJAw6-ZFK24jo-30" value="n" style="text;html=1;align=center;verticalAlign=middle;resizable=0;points=[];autosize=1;strokeColor=none;fillColor=none;" vertex="1" parent="1">
          <mxGeometry x="345" y="365" width="30" height="30" as="geometry" />
        </mxCell>
        <mxCell id="8Ps0CLrvJAw6-ZFK24jo-31" value="n" style="text;html=1;align=center;verticalAlign=middle;resizable=0;points=[];autosize=1;strokeColor=none;fillColor=none;" vertex="1" parent="1">
          <mxGeometry x="495" y="365" width="30" height="30" as="geometry" />
        </mxCell>
        <mxCell id="8Ps0CLrvJAw6-ZFK24jo-32" value="n" style="text;html=1;align=center;verticalAlign=middle;resizable=0;points=[];autosize=1;strokeColor=none;fillColor=none;" vertex="1" parent="1">
          <mxGeometry x="595" y="445" width="30" height="30" as="geometry" />
        </mxCell>
        <mxCell id="8Ps0CLrvJAw6-ZFK24jo-33" value="n" style="text;html=1;align=center;verticalAlign=middle;resizable=0;points=[];autosize=1;strokeColor=none;fillColor=none;" vertex="1" parent="1">
          <mxGeometry x="535" y="635" width="30" height="30" as="geometry" />
        </mxCell>
        <mxCell id="8Ps0CLrvJAw6-ZFK24jo-34" value="n" style="text;html=1;align=center;verticalAlign=middle;resizable=0;points=[];autosize=1;strokeColor=none;fillColor=none;" vertex="1" parent="1">
          <mxGeometry x="455" y="695" width="30" height="30" as="geometry" />
        </mxCell>
        <mxCell id="8Ps0CLrvJAw6-ZFK24jo-35" value="n" style="text;html=1;align=center;verticalAlign=middle;resizable=0;points=[];autosize=1;strokeColor=none;fillColor=none;" vertex="1" parent="1">
          <mxGeometry x="345" y="675" width="30" height="30" as="geometry" />
        </mxCell>
        <mxCell id="8Ps0CLrvJAw6-ZFK24jo-36" value="n" style="text;html=1;align=center;verticalAlign=middle;resizable=0;points=[];autosize=1;strokeColor=none;fillColor=none;" vertex="1" parent="1">
          <mxGeometry x="335" y="545" width="30" height="30" as="geometry" />
        </mxCell>
        <mxCell id="8Ps0CLrvJAw6-ZFK24jo-37" value="n&lt;br&gt;" style="text;html=1;align=center;verticalAlign=middle;resizable=0;points=[];autosize=1;strokeColor=none;fillColor=none;" vertex="1" parent="1">
          <mxGeometry x="305" y="430" width="30" height="30" as="geometry" />
        </mxCell>
      </root>
    </mxGraphModel>
  </diagram>
</mxfile>
